# xmcd CD database file
#
# Track frame offsets:
#	150
#	5060
#	172885
#	267532
#	277037
#
# Disc length: 4051 seconds
#
# Revision: 2
# Processed by: cddbd v1.5.2PL0 Copyright (c) Steve Scherf et al.
# Submitted via: CDex 1.70beta2
#
DISCID=430fd105
DTITLE=Kempowski, Walter - Aus großer Zeit - CD 13
DYEAR=2001
DGENRE=Hörbuch
TTITLE0=Musik
TTITLE1=Kapitel 47, erster Teil
TTITLE2=Kapitel 48, Fortsetzung
TTITLE3=Musik
TTITLE4=Der Epilog
EXTD=YEAR: 2001
EXTT0=
EXTT1=
EXTT2=
EXTT3=
EXTT4=
PLAYORDER=
